<?xml version="1.0" encoding="UTF-8"?>
<svg id="Calque_1" data-name="Calque 1" xmlns="http://www.w3.org/2000/svg" viewBox="0 0 11 11">
  <defs>
    <style>
      .cls-1 {
        fill: #fff;
      }

      .cls-2 {
        fill: none;
      }
    </style>
  </defs>
  <g>
    <path class="cls-1" d="m10,4h-1V1H0v6h2v3h9v-6h-1ZM1,6v-2h1v-1h-1v-1h1v1h1v-1h5v1h-2v1h2v2H3v-1h-1v1h-1Zm9,0v3H3v-2h6v-2h1v1Z"/>
    <polygon class="cls-1" points="4 4 3 4 3 5 4 5 5 5 6 5 6 4 5 4 4 4"/>
  </g>
  <rect class="cls-2" x="0" y="0" width="11" height="11"/>
</svg>