<?xml version="1.0" encoding="UTF-8"?>
<svg id="Calque_2" data-name="Calque 2" xmlns="http://www.w3.org/2000/svg" viewBox="0 0 19.98 26.63">
  <defs>
    <style>
      .cls-1 {
        fill: #fff;
      }
    </style>
  </defs>
  <g id="Calque_1-2" data-name="Calque 1">
    <g>
      <rect x="18.87" y="11.09" width="1.11" height="5.55"/>
      <rect x="17.76" y="9.98" width="1.11" height="1.11"/>
      <rect x="17.76" y="16.64" width="1.11" height="5.55"/>
      <polygon points="17.76 8.87 17.76 9.98 16.65 9.98 16.65 14.42 15.54 14.42 15.54 8.87 17.76 8.87"/>
      <polygon points="15.54 7.77 15.54 8.87 13.32 8.87 13.32 13.31 12.21 13.31 12.21 7.77 15.54 7.77"/>
      <polygon points="12.21 6.66 12.21 7.77 9.99 7.77 9.99 12.2 8.88 12.2 8.88 1.11 9.99 1.11 9.99 6.66 12.21 6.66"/>
      <rect x="6.66" width="2.22" height="1.11"/>
      <polygon points="6.66 1.11 6.66 17.75 5.55 17.75 5.55 15.53 4.44 15.53 4.44 14.42 5.55 14.42 5.55 1.11 6.66 1.11"/>
      <rect x="3.33" y="13.31" width="1.11" height="1.11"/>
      <rect x="3.33" y="19.97" width="1.11" height="3.33"/>
      <polygon points="3.33 12.2 3.33 13.31 1.11 13.31 1.11 15.53 0 15.53 0 12.2 3.33 12.2"/>
      <rect x="2.22" y="17.75" width="1.11" height="2.22"/>
      <rect x="1.11" y="15.53" width="1.11" height="2.22"/>
      <polygon points="17.76 22.19 17.76 26.63 5.55 26.63 5.55 25.52 16.65 25.52 16.65 22.19 17.76 22.19"/>
      <polygon class="cls-1" points="18.87 11.09 18.87 16.64 17.76 16.64 17.76 22.19 16.65 22.19 16.65 25.52 5.55 25.52 5.55 23.3 4.44 23.3 4.44 19.97 3.33 19.97 3.33 17.75 2.22 17.75 2.22 15.53 1.11 15.53 1.11 13.31 3.33 13.31 3.33 14.42 4.44 14.42 4.44 15.53 5.55 15.53 5.55 17.75 6.66 17.75 6.66 1.11 8.88 1.11 8.88 12.2 9.99 12.2 9.99 7.77 12.21 7.77 12.21 13.31 13.32 13.31 13.32 8.87 15.54 8.87 15.54 14.42 16.65 14.42 16.65 9.98 17.76 9.98 17.76 11.09 18.87 11.09"/>
      <rect x="4.44" y="23.3" width="1.11" height="2.22"/>
    </g>
  </g>
</svg>