<?xml version="1.0" encoding="UTF-8"?>
<svg id="Calque_1" data-name="Calque 1" xmlns="http://www.w3.org/2000/svg" viewBox="0 0 13.34 20">
  <defs>
    <style>
      .cls-1 {
        fill: #fff;
      }
    </style>
  </defs>
  <polygon class="cls-1" points="11.11 11.11 11.11 10 10 10 10 8.89 8.89 8.89 8.89 7.78 7.78 7.78 7.78 6.67 6.67 6.67 6.67 5.56 5.56 5.56 5.56 4.45 4.45 4.45 4.45 3.34 3.34 3.34 3.34 2.23 2.23 2.23 2.23 1.11 1.12 1.11 1.12 2.23 1.12 3.34 1.12 4.45 1.12 5.56 1.12 6.67 1.12 7.78 1.12 8.89 1.12 10 1.12 11.11 1.12 12.22 1.12 13.33 1.12 14.44 1.12 15.55 1.12 16.66 2.23 16.66 2.23 15.55 3.34 15.55 3.34 14.44 4.45 14.44 4.45 13.33 5.56 13.33 5.56 14.44 6.67 14.44 6.67 15.55 6.67 16.66 7.78 16.66 7.78 17.77 7.78 18.89 8.89 18.89 10 18.89 10 17.77 10 16.66 8.89 16.66 8.89 15.55 8.89 14.44 7.78 14.44 7.78 13.33 7.78 12.22 8.89 12.22 10 12.22 11.11 12.22 12.22 12.22 12.22 11.11 11.11 11.11"/>
  <g>
    <rect x="12.22" y="11.11" width="1.11" height="1.11"/>
    <rect x="11.11" y="10" width="1.11" height="1.11"/>
    <polygon points="10 18.89 11.11 18.89 11.11 17.77 11.11 16.66 10 16.66 10 17.77 10 18.89"/>
    <polygon points="10 12.22 8.89 12.22 7.78 12.22 7.78 13.33 7.78 14.44 8.89 14.44 8.89 13.33 10 13.33 11.11 13.33 12.22 13.33 12.22 12.22 11.11 12.22 10 12.22"/>
    <rect x="10" y="8.89" width="1.11" height="1.11"/>
    <polygon points="8.89 16.66 10 16.66 10 15.55 10 14.44 8.89 14.44 8.89 15.55 8.89 16.66"/>
    <rect x="8.89" y="7.78" width="1.11" height="1.11"/>
    <polygon points="7.78 18.89 7.78 20 8.89 20 10 20 10 18.89 8.89 18.89 7.78 18.89"/>
    <rect x="7.78" y="6.67" width="1.11" height="1.11"/>
    <polygon points="7.78 16.66 6.67 16.66 6.67 17.77 6.67 18.89 7.78 18.89 7.78 17.77 7.78 16.66"/>
    <rect x="6.67" y="5.56" width="1.11" height="1.11"/>
    <polygon points="6.67 14.44 5.56 14.44 5.56 15.55 5.56 16.66 6.67 16.66 6.67 15.55 6.67 14.44"/>
    <rect x="5.56" y="4.45" width="1.11" height="1.11"/>
    <rect x="4.45" y="13.33" width="1.11" height="1.11"/>
    <rect x="4.45" y="3.34" width="1.11" height="1.11"/>
    <rect x="3.34" y="14.44" width="1.11" height="1.11"/>
    <rect x="3.34" y="2.23" width="1.11" height="1.11"/>
    <rect x="2.23" y="15.55" width="1.11" height="1.11"/>
    <rect x="2.23" y="1.11" width="1.11" height="1.11"/>
    <polygon points="1.12 15.55 1.12 14.44 1.12 13.33 1.12 12.22 1.12 11.11 1.12 10 1.12 8.89 1.12 7.78 1.12 6.67 1.12 5.56 1.12 4.45 1.12 3.34 1.12 2.23 1.12 1.11 2.23 1.11 2.23 0 1.12 0 0 0 0 1.11 0 2.23 0 3.34 0 4.45 0 5.56 0 6.67 0 7.78 0 8.89 0 10 0 11.11 0 12.22 0 13.33 0 14.44 0 15.55 0 16.66 0 17.77 1.12 17.77 2.23 17.77 2.23 16.66 1.12 16.66 1.12 15.55"/>
  </g>
</svg>